<?xml version="1.0" standalone="no"?>
<!DOCTYPE svg PUBLIC "-//W3C//DTD SVG 20010904//EN"
 "http://www.w3.org/TR/2001/REC-SVG-20010904/DTD/svg10.dtd">
<svg version="1.0" xmlns="http://www.w3.org/2000/svg"
 width="810.000000pt" height="810.000000pt" viewBox="0 0 810.000000 810.000000"
 preserveAspectRatio="xMidYMid meet">

<g transform="translate(0.000000,810.000000) scale(0.100000,-0.100000)"
fill="#000000" stroke="none">
<path d="M0 7635 l0 -465 33 0 c18 0 43 -7 56 -17 22 -15 23 -17 6 -29 -10 -8
-30 -11 -46 -7 -48 9 -36 -23 18 -49 30 -14 53 -34 62 -52 12 -25 11 -31 -6
-55 -16 -21 -29 -27 -72 -29 l-51 -3 0 -3465 0 -3464 4050 0 4050 0 0 4050 0
4050 -4050 0 -4050 0 0 -465z m6412 -303 c33 -34 36 -42 40 -109 2 -46 0 -73
-7 -73 -5 0 -20 -3 -32 -6 -17 -5 -23 -2 -23 10 0 9 8 16 20 16 18 0 20 7 20
57 0 48 -4 61 -27 85 -19 20 -37 28 -60 28 -29 0 -33 -3 -33 -25 0 -14 -4 -25
-10 -25 -10 0 -14 62 -5 72 3 2 22 5 43 6 32 1 44 -4 74 -36z m762 -113 c3
-78 5 -144 2 -146 -2 -2 -70 -7 -150 -10 -119 -5 -146 -3 -150 8 -2 8 -7 73
-11 146 l-6 132 53 4 c29 2 98 4 154 5 l101 2 7 -141z m481 30 c9 -26 -15 -52
-38 -43 -17 6 -23 44 -10 57 14 14 42 6 48 -14z m104 7 c15 -18 3 -46 -20 -46
-22 0 -34 22 -25 45 7 19 30 19 45 1z m109 -14 c4 -28 -24 -40 -45 -19 -21 21
-9 49 19 45 15 -2 24 -11 26 -26z m-1528 -9 c16 -21 21 -37 17 -68 -4 -36 0
-44 37 -82 24 -27 34 -43 25 -43 -8 0 -29 16 -47 35 -29 30 -36 33 -58 25 -35
-14 -39 -13 -73 16 -24 20 -31 34 -31 62 0 76 85 112 130 55z m-150 -3 c0 -6
-7 -13 -15 -16 -11 -5 -15 -22 -15 -68 0 -101 4 -106 66 -106 30 0 54 5 54 10
0 6 5 10 10 10 6 0 10 -9 10 -20 0 -15 -7 -20 -27 -20 -16 -1 -49 -3 -75 -5
-47 -4 -47 -4 -52 28 -8 51 -13 186 -8 192 10 9 52 5 52 -5z m-3680 -45 c85
-44 74 -184 -14 -201 -71 -13 -129 25 -142 92 -17 90 73 152 156 109z m-1269
-93 c43 -38 51 -104 19 -145 -20 -25 -28 -28 -66 -25 -43 3 -44 3 -44 -28 0
-31 -23 -53 -35 -34 -5 9 -24 183 -25 229 0 20 4 23 28 18 15 -3 34 -2 42 4
25 15 49 10 81 -19z m76 16 c4 -7 20 -40 35 -72 l26 -60 11 40 c6 22 14 54 17
72 5 25 12 32 30 32 13 0 24 -1 24 -2 0 -2 -16 -55 -35 -118 -33 -111 -57
-150 -90 -150 -23 0 -27 31 -5 37 34 9 32 38 -10 128 -22 48 -40 92 -40 96 0
14 28 11 37 -3z m-388 -13 c54 -27 68 -119 25 -162 -22 -22 -32 -25 -69 -21
l-43 5 5 -33 c5 -29 3 -34 -15 -34 -25 0 -29 15 -38 149 l-7 104 26 -5 c14 -3
32 -1 39 3 19 13 46 11 77 -6z m-397 -23 c11 -11 19 -42 24 -95 l7 -78 -29 2
c-16 1 -43 -2 -59 -6 -23 -5 -37 -1 -58 15 -51 40 -28 92 47 103 47 7 52 12
36 32 -16 19 -44 19 -60 0 -15 -19 -50 -20 -50 -2 0 15 26 41 50 50 24 10 73
-2 92 -21z m84 17 c4 -8 9 -8 17 0 6 6 26 11 45 11 82 0 126 -117 66 -177 -21
-21 -32 -25 -65 -20 -39 5 -39 5 -39 -29 0 -27 -4 -34 -19 -34 -21 0 -26 22
-37 173 -6 75 -5 87 9 87 9 0 19 -5 23 -11z m444 -148 c0 -27 -19 -36 -37 -18
-18 18 -9 37 18 37 12 0 19 -7 19 -19z m6395 -277 c33 -66 19 -214 -20 -214
-10 0 -10 8 1 38 18 51 17 107 -5 170 -21 62 -6 66 24 6z m-151 4 c10 -40 7
-68 -9 -68 -10 0 -15 10 -15 29 0 16 -3 36 -6 45 -4 10 -1 16 9 16 8 0 17 -10
21 -22z m-1480 -65 c-19 -63 -18 -103 6 -165 24 -63 23 -58 6 -58 -7 0 -24 23
-36 52 -17 40 -21 64 -17 107 5 67 21 111 41 111 12 0 12 -6 0 -47z m166 15
c0 -13 3 -33 6 -45 5 -19 2 -23 -15 -23 -18 0 -21 6 -21 45 0 33 4 45 15 45 9
0 15 -9 15 -22z m1190 -12 c0 -8 -12 -11 -34 -8 -45 5 -58 -24 -18 -39 51 -21
57 -26 57 -55 0 -33 -37 -57 -73 -47 -36 9 -26 30 12 25 19 -2 37 1 41 7 10
17 -14 41 -40 41 -48 0 -61 64 -17 86 27 13 72 7 72 -10z m-1870 -6 c0 -11 -4
-20 -10 -20 -5 0 -10 9 -10 20 0 11 5 20 10 20 6 0 10 -9 10 -20z m1694 14
c24 -9 19 -27 -6 -21 -12 3 -29 2 -39 -4 -22 -11 -14 -39 10 -39 51 0 82 -68
41 -90 -26 -14 -82 -9 -87 7 -3 8 6 10 29 7 47 -8 69 17 36 40 -12 9 -30 16
-39 16 -31 0 -40 62 -11 79 20 12 44 14 66 5z m-290 -19 c4 -11 -2 -15 -22
-15 -41 0 -52 -17 -52 -82 0 -32 -4 -58 -9 -58 -11 0 -21 51 -21 112 0 44 2
50 19 45 10 -2 25 -1 32 4 21 13 46 11 53 -6z m151 -15 c23 -44 19 -49 -37
-52 -47 -3 -53 -5 -50 -23 5 -32 29 -44 65 -34 37 11 43 7 22 -15 -38 -37
-114 -3 -116 52 -3 73 16 102 67 102 27 0 36 -6 49 -30z m-349 12 c35 -23 45
-102 18 -141 -12 -17 -24 -22 -45 -19 -27 4 -29 2 -29 -29 0 -23 -5 -33 -15
-33 -12 0 -15 15 -15 73 0 39 -3 89 -6 109 -6 34 -5 37 22 41 49 7 59 7 70 -1z
m-328 -19 c12 -10 24 -30 28 -45 6 -26 5 -27 -48 -30 -47 -3 -53 -5 -50 -23 6
-29 22 -36 65 -30 28 4 38 2 35 -7 -7 -21 -56 -31 -88 -18 -54 22 -64 122 -17
155 28 20 50 19 75 -2z m107 -13 l20 -29 18 29 c11 17 26 30 34 30 12 0 11 -7
-6 -34 -27 -43 -26 -57 4 -86 28 -27 32 -40 10 -40 -8 0 -22 11 -31 25 -21 32
-26 31 -47 -5 -10 -16 -25 -30 -33 -30 -11 0 -9 10 11 45 l27 44 -26 34 c-29
38 -32 47 -13 47 6 0 21 -13 32 -30z m-611 -11 c15 -12 26 -30 26 -45 0 -22
-3 -24 -55 -24 -58 0 -67 -9 -42 -45 11 -14 22 -17 55 -12 51 6 60 -17 11 -28
-89 -20 -145 89 -79 155 26 26 51 25 84 -1z m-224 -1 c0 -9 3 -9 12 0 18 18
68 15 68 -4 0 -12 -6 -15 -21 -11 -13 4 -28 -2 -41 -15 -17 -17 -20 -30 -16
-74 6 -73 -17 -74 -26 -1 -10 86 -8 117 9 117 8 0 15 -5 15 -12z m-274 -91 c6
-74 6 -79 -12 -76 -10 1 -27 -1 -36 -5 -48 -21 -78 19 -78 107 0 44 3 57 15
57 11 0 15 -13 15 -54 0 -70 7 -86 36 -86 29 0 39 32 31 94 -6 43 0 63 14 49
4 -5 11 -43 15 -86z m136 26 c3 -66 4 -68 31 -71 16 -2 27 -8 24 -15 -5 -15
-127 -22 -127 -7 0 5 9 10 19 10 29 0 33 14 26 75 -6 45 -11 55 -26 55 -11 0
-19 5 -19 10 0 6 16 10 35 10 l34 0 3 -67z m-499 25 c37 -43 11 -68 -69 -68
-28 0 -32 -21 -8 -44 18 -18 33 -20 68 -6 21 8 26 6 26 -6 0 -26 -63 -38 -101
-18 -27 14 -39 39 -39 87 0 77 75 110 123 55z m182 17 c2 -5 6 -58 9 -117 5
-92 4 -108 -9 -108 -11 0 -15 11 -15 40 0 37 -2 40 -19 30 -29 -15 -45 -12
-69 10 -28 26 -31 113 -6 141 18 20 104 23 109 4z m-342 -14 c4 -17 1 -19 -28
-14 -43 7 -58 -19 -53 -90 2 -31 -1 -52 -8 -54 -16 -5 -24 30 -24 106 0 57 2
63 19 58 10 -2 25 -1 32 4 24 15 56 10 62 -10z m-952 -21 c30 -17 24 -37 -11
-32 -16 2 -37 1 -46 -2 -23 -9 1 -36 32 -36 12 0 30 -7 38 -16 19 -18 21 -65
4 -82 -11 -11 -108 -18 -108 -8 0 2 -2 11 -5 18 -5 11 5 14 42 14 56 -1 68 23
18 37 -51 16 -60 23 -63 55 -5 48 50 77 99 52z m199 -7 c0 -14 -8 -18 -37 -18
-51 0 -51 -26 0 -38 97 -23 58 -131 -40 -112 -23 4 -33 11 -33 24 0 16 6 18
46 13 41 -4 46 -3 42 14 -2 11 -17 22 -36 28 -19 5 -41 20 -49 33 -14 21 -14
25 1 48 14 21 25 25 61 25 36 0 45 -3 45 -17z m-1570 -17 c0 -21 6 -25 33 -28
41 -4 38 -21 -5 -28 -33 -5 -33 -5 -36 -67 l-3 -63 31 0 c21 0 30 -4 28 -12
-6 -18 -52 -22 -79 -8 -20 11 -21 17 -15 81 7 65 6 69 -13 69 -29 0 -26 17 4
24 18 5 25 13 25 31 0 16 6 25 15 25 9 0 15 -9 15 -24z m1198 2 c11 -13 24
-35 27 -50 l7 -28 -61 0 c-65 0 -77 -12 -45 -44 18 -18 33 -20 67 -7 32 12 46
-13 17 -29 -35 -19 -89 -12 -115 15 -55 54 -19 165 53 165 17 0 37 -9 50 -22z
m-366 -39 c24 -46 23 -91 -4 -124 -18 -23 -26 -26 -56 -22 -34 6 -34 6 -30
-28 3 -28 0 -35 -13 -35 -18 0 -22 18 -35 174 l-6 79 24 -6 c13 -4 29 -2 37 2
25 16 65 -4 83 -40z m206 29 c3 -15 -2 -17 -26 -12 -48 10 -66 -17 -58 -88 5
-47 3 -60 -10 -65 -8 -3 -17 -4 -19 -1 -2 2 -7 44 -11 94 l-7 91 64 -1 c52 -1
64 -4 67 -18z m-603 -23 c14 -13 25 -36 25 -50 0 -24 -3 -25 -54 -25 -57 0
-70 -7 -60 -34 8 -22 52 -31 86 -18 24 9 28 8 28 -8 0 -26 -16 -33 -67 -33
-59 0 -84 25 -91 91 -4 44 -1 54 21 76 34 34 79 34 112 1z m114 -2 c20 -27 22
-27 36 -9 8 10 16 23 17 28 2 6 14 8 26 6 l22 -3 -26 -38 c-28 -42 -29 -37 26
-109 21 -27 21 -28 3 -28 -11 0 -32 13 -48 30 l-28 30 -23 -34 c-22 -31 -54
-45 -54 -22 0 6 12 28 26 49 l25 38 -30 38 c-36 45 -37 51 -12 51 11 0 29 -12
40 -27z m-689 -22 c0 -13 -8 -16 -41 -13 -27 3 -44 0 -50 -9 -11 -19 -3 -27
41 -39 86 -23 50 -110 -46 -110 -37 0 -44 3 -44 19 0 16 6 18 38 15 20 -3 43
-1 51 5 18 12 7 41 -16 41 -49 0 -82 61 -49 89 37 31 116 32 116 2z m-210 -1
c18 -18 20 -28 14 -83 -4 -34 -7 -68 -7 -74 0 -7 -9 -13 -19 -13 -16 0 -17 7
-11 75 l6 75 -25 0 c-34 0 -45 -15 -53 -75 -10 -72 -14 -85 -32 -85 -12 0 -14
8 -10 43 3 23 9 66 13 95 6 50 8 54 29 49 13 -2 30 0 37 4 21 14 37 10 58 -11z
m-1395 -95 l7 -105 29 0 c19 0 29 -5 29 -15 0 -12 -14 -15 -70 -15 -40 0 -70
4 -70 10 0 6 12 10 26 10 l25 0 -6 83 c-9 112 -8 111 -45 92 -26 -13 -30 -14
-30 -1 0 21 39 46 71 46 l27 0 7 -105z m1203 77 c9 -11 12 -36 9 -71 -3 -44
-9 -59 -31 -78 -55 -47 -126 -17 -126 52 0 49 25 103 52 115 31 13 80 4 96
-18z m-204 12 c9 -3 16 -12 16 -20 0 -11 -9 -13 -39 -8 -51 8 -81 -19 -81 -75
0 -58 23 -71 83 -46 25 11 22 -22 -4 -36 -31 -16 -86 -2 -105 27 -12 17 -15
37 -11 67 10 70 79 115 141 91z m3174 -133 c-2 -9 -11 -17 -21 -19 -21 -4 -35
27 -17 38 19 12 42 0 38 -19z m-201 3 c8 -21 -13 -42 -28 -27 -13 13 -5 43 11
43 6 0 13 -7 17 -16z m100 0 c7 -20 -17 -37 -34 -23 -15 13 -6 39 13 39 8 0
17 -7 21 -16z m663 -156 c14 -32 23 -73 23 -103 0 -58 -25 -125 -47 -125 -13
0 -13 5 -1 41 21 57 19 119 -5 181 -24 63 -23 58 -6 58 7 0 24 -24 36 -52z
m-166 -5 c-18 -59 -17 -107 2 -158 27 -70 28 -78 13 -73 -27 8 -59 89 -59 150
0 65 21 128 44 128 12 0 12 -6 0 -47z m-160 -39 c28 -11 17 -29 -16 -29 -26 0
-33 -4 -33 -20 0 -14 9 -21 34 -26 49 -10 66 -46 39 -81 -20 -26 -108 -28
-108 -3 0 12 7 15 33 10 67 -12 77 36 10 52 -36 8 -38 11 -38 48 0 33 4 40 25
46 35 10 36 10 54 3z m-170 -10 c31 -12 17 -31 -21 -30 -28 1 -38 -3 -41 -16
-2 -12 5 -19 25 -23 45 -10 58 -20 61 -49 5 -39 -14 -56 -63 -56 -30 0 -45 5
-49 16 -5 14 -1 15 26 10 61 -11 81 34 21 49 -38 9 -53 23 -53 51 0 43 46 66
94 48z m-164 -26 c11 -12 20 -32 20 -45 0 -19 -5 -23 -32 -23 -70 0 -97 -22
-64 -49 17 -15 43 -17 74 -7 16 5 22 3 22 -7 0 -18 -21 -27 -65 -27 -44 0 -75
38 -75 92 0 73 75 114 120 66z m-246 3 c4 -5 18 -5 35 2 32 12 61 4 61 -16 0
-9 -9 -12 -27 -10 -48 6 -58 -9 -56 -82 2 -50 0 -65 -11 -65 -17 0 -26 43 -26
121 0 54 10 74 24 50z m-114 -21 c15 -15 20 -33 20 -74 0 -67 -18 -90 -67 -84
-33 4 -34 3 -31 -30 4 -46 -19 -55 -26 -10 -3 18 -8 72 -11 120 l-6 87 28 4
c58 9 74 6 93 -13z m-259 -21 l26 -32 19 31 c10 18 27 32 37 32 18 0 18 -1 3
-22 -40 -56 -41 -64 -7 -104 22 -28 27 -40 18 -46 -7 -4 -21 4 -35 22 -29 38
-38 37 -57 0 -9 -16 -22 -30 -30 -30 -20 0 -19 8 10 54 l24 40 -29 36 c-26 33
-30 50 -11 50 3 0 18 -14 32 -31z m-102 -5 c12 -15 21 -35 21 -45 0 -16 -8
-19 -54 -19 -61 0 -73 -9 -55 -41 10 -19 17 -21 60 -16 37 5 49 3 49 -7 0 -35
-91 -36 -125 -1 -33 32 -35 105 -5 135 30 30 83 27 109 -6z m-1569 -29 c0 -22
3 -24 30 -18 23 4 30 2 30 -11 0 -11 -9 -16 -29 -16 -37 0 -38 -2 -42 -70 l-4
-55 33 -3 c42 -4 37 -26 -7 -30 -52 -5 -64 12 -58 85 6 58 5 63 -13 63 -11 0
-20 7 -20 15 0 8 9 15 20 15 13 0 22 9 26 25 8 33 34 33 34 0z m815 0 c20 -19
25 -34 25 -76 0 -64 -19 -89 -67 -89 -31 0 -33 -2 -33 -35 0 -24 -5 -35 -14
-35 -22 0 -23 5 -31 132 l-7 116 29 5 c60 9 75 6 98 -18z m-190 -10 c20 -19
25 -34 25 -76 0 -64 -19 -89 -67 -89 -31 0 -33 -2 -33 -35 0 -28 -4 -35 -19
-35 -17 0 -20 11 -26 108 -4 59 -9 115 -12 126 -4 16 -1 18 21 14 15 -3 29 -1
32 3 10 17 55 9 79 -16z m-197 -5 c12 -12 22 -31 22 -43 0 -12 3 -45 6 -74 l7
-51 -39 -1 c-22 -1 -52 -2 -68 -3 -34 -1 -56 24 -56 63 0 34 32 59 77 59 18 0
33 4 33 10 0 10 -34 32 -41 26 -2 -2 -16 -6 -31 -10 -23 -5 -28 -3 -28 13 0
35 84 42 118 11z m745 13 c-7 -2 -19 -2 -25 0 -7 3 -2 5 12 5 14 0 19 -2 13
-5z m-1315 -46 c3 -16 -1 -18 -26 -12 -40 8 -78 -10 -62 -30 6 -8 25 -17 41
-20 37 -8 55 -39 41 -70 -20 -43 -132 -59 -132 -19 0 13 7 15 31 10 33 -6 69
7 69 27 0 7 -19 19 -42 27 -37 13 -43 19 -46 47 -3 26 2 35 25 47 38 21 97 17
101 -7z m-204 -6 c14 -16 16 -30 11 -78 -9 -78 -14 -93 -31 -93 -11 0 -13 16
-11 76 2 83 -6 96 -42 67 -16 -13 -23 -34 -27 -80 -4 -37 -12 -64 -20 -67 -22
-8 -24 8 -14 85 5 41 10 80 10 88 0 9 8 12 24 9 14 -3 31 -1 38 3 21 14 44 10
62 -10z m-1372 -18 c31 -28 23 -72 -27 -135 -25 -32 -45 -60 -45 -62 0 -3 25
-2 55 1 47 5 55 3 55 -11 0 -12 -9 -16 -34 -16 -18 0 -54 -3 -80 -6 -40 -6
-46 -4 -46 11 0 10 18 37 40 61 22 24 48 59 57 79 16 33 16 36 -3 56 -19 21
-45 22 -88 4 -14 -6 -17 -4 -14 11 6 35 93 41 130 7z m1168 7 c40 -40 17 -150
-36 -170 -81 -31 -127 32 -93 129 19 55 92 78 129 41z m-202 4 c12 -4 22 -13
22 -21 0 -10 -8 -12 -34 -7 -46 8 -86 -29 -86 -79 0 -47 21 -63 65 -49 29 8
35 8 35 -4 0 -16 -39 -34 -71 -34 -29 0 -69 44 -69 77 0 40 30 95 60 110 28
14 44 16 78 7z m1972 -11 c0 -5 -14 -8 -31 -9 -20 -1 -26 2 -17 7 16 11 48 12
48 2z m1089 -262 c38 -38 40 -172 4 -199 -10 -7 -31 -12 -48 -10 -39 4 -65 53
-65 126 0 43 5 58 25 77 29 30 58 32 84 6z m-189 -1 c40 -22 57 -172 23 -202
-69 -59 -136 15 -120 133 9 66 49 95 97 69z m-180 -10 c39 -21 55 -161 23
-198 -29 -33 -58 -36 -88 -9 -24 20 -28 32 -32 93 -5 60 -2 73 17 97 22 28 48
34 80 17z m-170 -20 c24 -24 26 -53 4 -75 -15 -15 -15 -17 5 -31 21 -15 28
-58 13 -80 -21 -31 -97 -45 -120 -22 -21 21 -13 26 28 21 43 -6 70 8 70 37 0
22 -30 48 -52 45 -10 -2 -18 3 -18 11 0 8 8 14 19 14 26 0 44 25 36 51 -6 19
-13 21 -51 16 -32 -3 -44 -1 -44 8 0 29 83 32 110 5z m-788 -52 c2 -18 11 -24
36 -26 42 -4 44 -32 2 -32 -28 0 -30 -2 -30 -37 0 -66 9 -83 41 -83 19 0 29
-5 29 -15 0 -19 -73 -21 -88 -2 -5 6 -13 38 -16 69 -6 48 -11 57 -29 60 -29 4
-28 32 1 36 16 3 22 10 22 28 0 31 27 32 32 2z m-102 -59 c0 -15 -5 -17 -29
-13 -44 9 -63 -25 -55 -98 6 -54 5 -58 -14 -58 -18 0 -20 9 -27 85 -7 91 -3
109 24 100 10 -3 29 -2 42 3 32 12 59 3 59 -19z m-840 -4 c0 -21 5 -25 31 -25
41 0 33 -24 -9 -28 -25 -3 -32 -8 -32 -25 0 -12 -3 -39 -6 -59 -6 -37 -6 -38
25 -38 21 0 31 -5 31 -16 0 -12 -9 -14 -42 -12 l-43 3 1 73 c0 70 -1 72 -24
72 -29 0 -25 24 5 28 13 2 24 13 27 28 8 32 36 32 36 -1z m1344 13 c-7 -11
-34 -10 -34 1 0 6 9 9 19 8 11 0 17 -5 15 -9z m-724 -23 c31 -33 34 -113 6
-144 -29 -32 -88 -29 -115 5 -30 38 -29 116 1 144 31 28 79 26 108 -5z m-191
-7 c23 -24 36 -76 28 -110 -11 -43 -31 -60 -70 -60 -35 0 -37 -1 -37 -34 0
-23 -5 -34 -14 -34 -20 0 -23 17 -31 142 l-7 107 34 4 c68 8 78 7 97 -15z
m-571 -40 c3 -14 -3 -16 -32 -11 -23 3 -42 1 -52 -8 -14 -12 -14 -14 2 -26 10
-7 24 -13 33 -13 19 0 51 -29 51 -47 0 -8 -11 -25 -25 -38 -18 -19 -35 -25
-68 -25 -47 0 -58 5 -51 24 3 8 15 11 29 8 55 -10 106 29 58 44 -66 21 -73 27
-73 55 0 38 34 61 85 57 28 -2 41 -8 43 -20z m-198 -9 c12 -22 4 -121 -12
-151 -20 -40 -30 -17 -23 57 6 65 5 76 -10 81 -30 12 -56 -27 -62 -95 -5 -52
-9 -61 -25 -61 -18 0 -19 5 -14 48 18 138 17 134 43 129 13 -2 26 0 29 4 11
18 63 9 74 -12z m1740 9 c0 -7 -89 -2 -97 5 -2 3 18 4 46 4 28 -1 51 -5 51 -9z
m-1950 -18 c40 -40 19 -144 -35 -168 -38 -17 -62 -15 -86 9 -18 18 -21 30 -16
72 3 41 10 56 36 79 37 33 73 36 101 8z m-180 -21 c0 -16 -4 -17 -25 -9 -50
19 -95 -18 -95 -78 0 -49 33 -62 92 -37 13 5 15 2 11 -13 -9 -34 -89 -44 -115
-14 -51 57 -21 156 53 171 48 10 79 2 79 -20z m-993 13 c6 -4 16 -19 22 -34 8
-22 6 -31 -10 -52 -17 -21 -18 -26 -5 -26 8 0 20 -9 26 -19 30 -57 -11 -111
-84 -111 -39 0 -66 13 -66 31 0 4 16 5 34 2 73 -12 111 18 81 63 -11 16 -25
24 -45 24 -20 0 -30 5 -30 15 0 9 9 15 23 15 48 0 65 54 23 70 -15 5 -37 5
-58 -1 -41 -11 -38 -12 -38 5 0 8 6 17 13 19 19 8 101 7 114 -1z m51 -543 c4
-77 12 -109 27 -109 8 0 15 -7 15 -15 0 -8 -7 -15 -15 -15 -11 0 -15 -8 -13
-27 2 -19 -2 -28 -14 -31 -14 -3 -18 3 -18 29 l0 32 -55 -7 c-68 -8 -70 -1
-19 98 45 88 51 95 72 92 13 -2 18 -14 20 -47z m6962 36 c0 -3 -11 -10 -25
-15 -22 -8 -25 -16 -25 -54 0 -49 20 -78 48 -70 14 5 15 4 2 -5 -23 -17 -48
-13 -60 8 -16 31 -12 102 7 123 15 16 53 26 53 13z m-132 -17 c14 -18 26 -134
14 -142 -11 -6 -22 39 -22 91 0 37 -21 53 -45 33 -10 -8 -15 -31 -15 -71 0
-33 -4 -59 -10 -59 -6 0 -10 32 -10 76 0 60 3 75 13 71 8 -3 20 -1 28 4 20 12
35 11 47 -3z m-161 -13 c21 -15 36 -52 24 -59 -4 -3 -26 -6 -49 -7 -36 -3 -42
-6 -42 -26 0 -30 35 -49 66 -34 19 8 24 8 24 -3 0 -21 -59 -29 -86 -11 -45 29
-38 126 10 145 29 12 29 12 53 -5z m-147 -16 c0 -5 -16 -9 -35 -9 -28 0 -35
-4 -35 -19 0 -14 10 -21 33 -26 75 -17 59 -94 -20 -95 -21 0 -33 5 -33 13 0 9
10 12 28 10 15 -2 33 1 41 6 19 12 6 41 -18 41 -10 0 -29 8 -42 19 -20 16 -22
22 -12 44 8 17 22 27 40 29 33 4 53 -1 53 -13z m-320 -25 c0 -11 -5 -14 -16
-10 -23 9 -54 -2 -54 -19 0 -8 18 -19 40 -25 39 -10 45 -20 40 -60 -2 -23 -31
-40 -67 -40 -48 0 -44 28 5 32 46 4 50 27 7 41 -57 18 -70 44 -38 79 21 23 83
25 83 2z m-1195 -40 c34 -67 20 -234 -20 -234 -9 0 -9 11 1 52 18 66 17 103
-2 153 -27 70 -28 78 -13 73 8 -2 23 -22 34 -44z m1039 24 c32 -45 14 -68 -56
-68 -28 0 -35 -14 -19 -38 9 -16 47 -19 74 -8 12 6 17 4 17 -7 0 -24 -68 -38
-96 -19 -18 12 -34 49 -34 80 0 68 79 110 114 60z m-144 -7 c0 -14 -5 -18 -20
-14 -35 9 -50 -14 -50 -78 0 -44 -4 -59 -14 -59 -11 0 -15 19 -18 81 -3 70 -1
80 13 76 9 -3 23 -1 30 4 26 16 59 10 59 -10z m-387 -45 c76 -26 74 -43 -8
-84 -43 -21 -65 -27 -65 -19 0 7 20 23 45 35 25 12 45 26 45 30 0 5 -21 15
-47 23 -25 8 -48 20 -51 28 -5 14 -2 14 81 -13z m-103 -21 c0 -12 -14 -15 -65
-15 -36 0 -68 0 -72 -1 -4 0 -9 4 -11 10 -3 9 31 15 116 19 22 1 32 -2 32 -13z
m930 -15 c0 -25 -4 -30 -25 -30 -21 0 -25 5 -25 30 0 25 4 30 25 30 21 0 25
-5 25 -30z m-1450 5 c0 -10 -8 -15 -22 -14 -45 4 -58 -1 -58 -21 0 -13 9 -22
28 -26 58 -14 69 -49 25 -84 -29 -23 -83 -24 -90 -3 -3 8 7 12 32 11 62 -2 77
43 17 55 -30 6 -46 35 -35 64 12 31 103 46 103 18z m-320 -32 c0 -8 -5 -11
-11 -8 -5 4 -21 4 -35 1 -30 -8 -54 -58 -54 -111 0 -26 -4 -35 -16 -35 -17 0
-17 7 2 133 6 36 24 53 24 21 0 -13 4 -12 25 4 27 22 65 19 65 -5z m150 8 c15
-29 12 -58 -6 -65 -9 -3 -33 -6 -55 -6 -31 0 -39 -4 -39 -19 0 -32 27 -47 63
-33 17 6 33 9 36 7 10 -11 -18 -27 -57 -32 -35 -5 -42 -2 -57 21 -22 33 -15
90 16 122 29 30 84 33 99 5z m-1275 -13 c-30 -100 -28 -152 6 -219 17 -35 16
-49 -3 -49 -5 0 -21 25 -35 56 -21 46 -24 66 -21 117 6 75 22 117 44 117 12 0
15 -6 9 -22z m1965 -7 c0 -14 -28 -21 -86 -21 -50 0 -71 12 -41 23 21 9 127 7
127 -2z m-1426 -17 c25 -10 19 -22 -8 -17 -31 6 -58 -32 -58 -83 0 -41 12 -57
38 -52 25 4 44 44 44 91 0 20 4 37 10 37 5 0 7 7 4 15 -4 8 -1 15 5 15 13 0
13 -9 -2 -129 -8 -56 -18 -96 -25 -99 -7 -2 -10 2 -8 10 2 7 7 28 10 46 l6 32
-29 -21 c-23 -17 -33 -19 -49 -10 -11 6 -24 20 -27 32 -10 30 14 107 39 124
23 17 28 18 50 9z m-1096 -67 c3 -42 1 -47 -17 -47 -18 0 -21 6 -21 51 0 43 3
50 18 47 13 -2 18 -15 20 -51z m955 30 c27 -44 3 -67 -69 -67 -27 0 -32 -4
-36 -29 l-4 -30 55 3 c49 3 53 2 36 -10 -23 -17 -66 -18 -88 -1 -29 21 -23
101 10 139 21 24 79 21 96 -5z m-163 2 c0 -5 -11 -9 -25 -9 -39 0 -63 -32 -70
-94 -10 -78 -30 -73 -21 5 3 34 6 70 6 80 0 11 7 19 16 19 14 0 15 -2 3 -17
-13 -15 -12 -15 8 -5 12 7 24 16 27 21 7 11 56 11 56 0z m-932 -11 c-75 -203
-103 -268 -114 -268 -8 0 -14 5 -14 10 0 11 86 246 96 261 8 14 37 10 32 -3z
m-425 -44 c-20 -58 -13 -145 16 -202 17 -34 18 -42 7 -42 -21 0 -54 46 -67 94
-21 76 5 196 42 196 17 0 17 -3 2 -46z m187 27 c0 -10 3 -33 6 -50 6 -26 4
-31 -13 -31 -15 0 -22 9 -27 31 -11 54 -8 69 14 69 13 0 20 -7 20 -19z m-400
-56 c0 -22 4 -25 35 -25 43 0 46 -15 5 -23 -28 -6 -30 -9 -30 -55 0 -53 12
-72 47 -72 13 0 23 -4 23 -10 0 -5 -6 -10 -14 -10 -8 0 -21 -3 -29 -6 -24 -9
-57 31 -57 69 0 51 -11 77 -31 77 -25 0 -24 17 1 25 13 4 20 15 20 31 0 15 6
24 15 24 9 0 15 -9 15 -25z m2058 3 c5 -26 -25 -88 -43 -88 -13 0 -15 9 -11
53 3 28 5 53 5 55 3 12 46 -6 49 -20z m-2198 -48 c18 -10 43 -64 33 -74 -3 -3
-32 -8 -64 -12 -33 -4 -59 -10 -59 -14 0 -4 9 -18 19 -31 17 -22 22 -23 60
-13 34 9 41 9 41 -3 0 -16 -40 -33 -76 -33 -14 0 -36 11 -49 25 -20 19 -25 34
-25 74 0 42 4 53 26 70 29 23 64 27 94 11z m-170 -65 c0 -29 3 -73 6 -98 6
-40 3 -49 -19 -71 -32 -32 -107 -38 -107 -8 0 13 9 17 42 17 36 0 44 4 46 20
2 18 -2 20 -35 17 -49 -5 -73 20 -80 80 -4 34 0 49 16 70 19 24 29 27 76 27
l55 -1 0 -53z m1290 18 c0 -33 -36 -96 -51 -91 -6 2 -10 7 -10 11 1 4 1 30 1
57 0 49 1 50 30 50 26 0 30 -4 30 -27z m-1710 2 c42 -13 55 -125 19 -164 -17
-18 -30 -22 -56 -19 -35 4 -35 4 -30 -29 4 -25 2 -36 -9 -40 -8 -3 -17 -3 -20
0 -11 11 -25 240 -15 246 13 9 90 13 111 6z m-185 -30 c39 -38 38 -118 -2
-153 -19 -18 -34 -22 -54 -18 -27 5 -28 4 -22 -25 4 -21 1 -34 -8 -40 -28 -18
-27 -23 -45 180 l-6 74 25 -5 c14 -3 32 -1 39 3 23 15 48 10 73 -16z m-206
-12 c17 -14 23 -33 28 -90 3 -41 2 -73 -3 -74 -18 -2 -50 -7 -80 -14 -25 -6
-36 -3 -53 14 -43 43 -19 99 47 108 25 3 42 11 42 19 0 19 -33 26 -65 14 -38
-14 -59 4 -31 26 27 19 89 18 115 -3z m-946 -18 c1 -5 -19 -11 -45 -13 -46 -3
-48 -5 -48 -33 0 -27 3 -29 38 -29 47 0 79 -21 87 -59 8 -38 -16 -86 -47 -95
-43 -11 -96 -7 -102 9 -4 12 4 15 42 15 55 0 72 12 72 52 0 39 -39 64 -79 50
-35 -12 -41 -3 -41 63 0 43 1 44 38 48 54 6 82 3 85 -8z m1521 -60 c9 -35 1
-45 -35 -45 -27 0 -29 3 -29 35 0 32 3 35 29 35 23 0 30 -6 35 -25z m3710
-394 c3 -5 -3 -11 -14 -14 -17 -4 -20 -14 -20 -55 0 -28 -5 -54 -11 -58 -8 -5
-8 -9 1 -14 6 -4 14 -25 17 -48 4 -28 11 -42 24 -45 30 -8 22 -27 -11 -27 -24
0 -31 5 -35 28 -13 62 -21 77 -43 80 -29 4 -28 20 3 32 22 9 25 15 25 64 0 34
5 56 13 59 20 9 45 8 51 -2z m-5200 -27 c26 -10 18 -24 -14 -24 -37 0 -70 -31
-70 -66 0 -23 1 -24 16 -10 22 22 70 20 94 -4 29 -29 28 -103 -2 -124 -25 -18
-70 -21 -98 -6 -42 23 -56 157 -20 203 11 14 30 28 43 30 12 2 25 5 29 6 3 0
13 -2 22 -5z m4305 -103 c11 -27 21 -70 21 -95 0 -52 -26 -126 -44 -126 -10 0
-9 14 3 60 14 55 14 65 0 118 -9 31 -19 65 -24 75 -5 12 -3 17 8 17 8 0 24
-22 36 -49z m-164 17 c-4 -13 -9 -53 -12 -89 -4 -53 -1 -76 15 -112 23 -53 13
-71 -16 -30 -45 65 -52 156 -16 225 18 34 40 38 29 6z m690 -28 c28 -9 50 -23
50 -30 0 -16 -123 -85 -133 -75 -9 8 22 32 67 52 39 17 33 25 -31 43 -29 8
-48 18 -48 27 0 15 1 15 95 -17z m-115 -14 c0 -8 -15 -16 -37 -20 -57 -9 -113
-7 -113 4 0 11 27 18 90 23 25 2 48 4 53 5 4 1 7 -4 7 -12z m-1130 -46 c0 -16
7 -20 36 -20 42 0 43 -23 1 -28 -25 -3 -27 -7 -27 -45 0 -51 11 -70 41 -72 35
-2 34 -22 -1 -27 -45 -7 -70 15 -70 62 0 51 -8 70 -31 70 -10 0 -19 7 -19 15
0 8 9 15 20 15 15 0 20 7 20 25 0 16 6 25 15 25 8 0 15 -9 15 -20z m1130 -14
c0 -13 -59 -26 -116 -26 -44 0 -28 29 19 33 88 8 97 7 97 -7z m-1825 -13 c-32
-78 -31 -155 2 -222 12 -23 17 -44 11 -47 -30 -19 -83 106 -74 173 8 61 32
113 52 113 11 0 14 -5 9 -17z m593 -15 c20 -20 14 -28 -23 -28 -44 0 -58 -24
-53 -93 2 -43 0 -52 -14 -55 -15 -3 -18 5 -20 57 -4 125 -6 116 24 116 15 1
30 4 34 8 11 11 39 8 52 -5z m-195 -40 c27 -32 23 -103 -8 -133 -43 -44 -97
-28 -116 34 -29 97 63 171 124 99z m-184 -14 c15 -19 21 -41 21 -75 0 -40 -4
-51 -27 -69 -18 -14 -35 -19 -50 -15 -21 5 -23 2 -23 -30 0 -23 -5 -35 -14
-35 -11 0 -16 20 -21 78 -12 158 -12 157 12 157 12 0 25 4 29 8 16 16 54 6 73
-19z m-806 -34 c4 -15 14 -20 37 -20 39 0 36 -23 -3 -28 -25 -3 -27 -7 -27
-51 0 -52 12 -71 47 -71 34 0 28 -17 -8 -25 -44 -10 -63 12 -69 83 -5 52 -7
57 -27 55 -15 -2 -23 3 -23 12 0 8 9 15 20 15 15 0 20 7 20 25 0 30 25 34 33
5z m430 5 c22 -21 34 -144 16 -156 -11 -7 -16 5 -22 54 -12 83 -13 87 -35 87
-34 0 -45 -25 -39 -89 5 -46 3 -60 -8 -64 -16 -7 -24 23 -26 98 -1 76 -1 78
21 72 11 -3 23 -1 26 4 8 14 51 11 67 -6z m-785 -18 c2 -10 -3 -17 -12 -17
-18 0 -29 16 -21 31 9 14 29 6 33 -14z m1852 -1 c0 -44 -21 -86 -42 -86 -16 0
-19 5 -14 23 3 12 6 37 6 55 0 27 3 32 25 32 20 0 25 -5 25 -24z m-1252 -3
c12 -10 24 -30 28 -45 6 -27 5 -28 -32 -28 -74 0 -97 -15 -75 -48 9 -15 35
-18 74 -9 20 6 27 4 27 -7 0 -18 -22 -26 -71 -26 -34 0 -42 5 -59 33 -11 17
-20 42 -20 55 0 28 25 78 42 85 27 11 67 6 86 -10z m-801 -38 c12 -169 13
-170 56 -166 27 3 20 -26 -8 -32 -47 -8 -66 20 -76 109 -4 43 -8 85 -8 92 -1
6 -10 12 -20 12 -11 0 -22 4 -26 9 -6 11 20 20 55 18 21 -2 25 -7 27 -42z
m423 0 c0 -11 -11 -15 -40 -15 -32 0 -40 -4 -40 -19 0 -13 10 -20 36 -24 44
-7 64 -23 64 -50 0 -37 -29 -57 -82 -57 -37 0 -48 4 -48 16 0 13 7 15 33 10
36 -7 75 13 63 32 -4 7 -25 15 -47 18 -46 8 -67 40 -49 74 12 23 25 28 73 29
27 1 37 -3 37 -14z m-216 -51 c3 -26 6 -60 6 -77 0 -27 2 -29 30 -25 41 6 40
-18 -1 -26 -80 -16 -165 2 -89 19 32 7 33 9 24 79 -5 35 -11 46 -25 46 -22 0
-34 16 -17 23 7 3 25 6 39 6 24 1 27 -3 33 -45z m3690 -25 l7 -61 34 39 c18
21 36 35 41 30 4 -4 -2 -17 -14 -30 -29 -30 -28 -37 9 -83 20 -26 26 -40 18
-43 -7 -2 -26 13 -42 33 -33 42 -47 39 -47 -10 0 -38 -15 -46 -24 -11 -9 34
-7 197 3 197 4 0 12 -27 15 -61z m-4266 15 c44 -12 66 -93 40 -149 -11 -25
-47 -41 -80 -36 -14 2 -18 -5 -18 -34 0 -29 -4 -36 -17 -33 -19 4 -20 9 -25
141 l-3 102 27 0 c15 1 30 4 34 8 9 8 12 8 42 1z m-173 -39 c20 -19 25 -34 25
-73 0 -66 -24 -96 -75 -95 -37 1 -37 1 -30 -33 5 -29 3 -34 -14 -34 -23 0 -29
31 -33 165 l-3 80 28 1 c15 1 30 4 34 8 14 13 45 5 68 -19z m3968 -5 c3 -14
14 -20 31 -20 14 0 26 -4 26 -10 0 -5 -11 -10 -25 -10 -25 0 -26 -2 -23 -57 3
-55 4 -58 31 -61 42 -5 32 -24 -10 -20 l-38 3 -9 63 c-8 50 -13 62 -28 62 -10
0 -18 5 -18 10 0 6 9 10 20 10 15 0 20 7 20 25 0 30 16 33 23 5z m381 14 c26
-10 18 -27 -9 -20 -53 14 -88 -70 -45 -109 17 -15 24 -16 45 -7 20 9 25 9 25
-2 0 -29 -69 -36 -92 -8 -58 66 -1 176 76 146z m-4546 -28 c7 -7 16 -45 19
-84 5 -58 3 -72 -8 -73 -20 -2 -30 -4 -62 -13 -61 -18 -107 38 -73 89 11 17
29 27 56 31 48 8 55 34 9 34 -17 0 -39 -4 -49 -10 -13 -7 -19 -6 -23 4 -15 40
95 58 131 22z m4375 2 c12 -9 19 -34 24 -82 6 -67 6 -69 -15 -64 -12 4 -25 2
-28 -3 -11 -18 -63 -10 -74 12 -21 38 -4 68 45 81 25 7 45 16 45 20 0 14 -35
25 -55 17 -29 -11 -35 -11 -35 5 0 25 65 34 93 14z m-699 -60 c3 -35 7 -79 9
-98 2 -30 6 -35 30 -38 37 -4 29 -27 -9 -27 -39 0 -54 33 -54 123 0 70 -1 72
-25 72 -29 0 -34 16 -7 23 47 13 50 9 56 -55z m-4604 30 c-1 -7 -16 -62 -34
-123 -23 -74 -39 -111 -50 -113 -21 -4 -21 -4 14 105 17 51 30 98 30 103 0 6
-24 9 -56 8 -70 -4 -89 19 -22 25 94 8 118 7 118 -5z m4434 -50 c3 -35 7 -79
9 -98 2 -30 6 -35 30 -38 30 -4 36 -17 11 -26 -25 -9 -33 -7 -54 14 -15 15
-20 33 -20 78 0 76 -8 102 -31 102 -24 0 -25 17 -1 23 47 13 50 9 56 -55z
m546 39 c0 -9 -10 -12 -27 -10 -39 5 -61 -10 -44 -31 8 -9 22 -16 31 -16 35 0
50 -12 50 -41 0 -35 -36 -62 -76 -57 -45 5 -42 28 4 28 26 0 42 5 45 15 7 17
-5 26 -46 34 -68 14 -48 91 24 91 26 0 39 -4 39 -13z m-3490 -32 c0 -32 -3
-35 -29 -35 -24 0 -29 5 -33 30 -5 36 -3 40 34 40 25 0 28 -3 28 -35z m2640
11 c0 -8 -10 -16 -22 -18 -13 -2 -24 -11 -26 -20 -3 -14 3 -18 27 -18 17 0 31
-4 31 -10 0 -5 -11 -10 -25 -10 -24 0 -25 -2 -25 -75 0 -59 -3 -75 -15 -75
-11 0 -15 16 -17 68 -3 61 -5 67 -25 70 -28 4 -31 22 -4 22 13 0 20 9 25 30 7
39 76 71 76 36z m-238 -23 c21 -18 23 -33 6 -33 -14 0 -48 30 -48 42 0 13 22
9 42 -9z m-146 -10 c-30 -77 -28 -148 5 -215 15 -29 16 -37 5 -41 -8 -3 -23
11 -37 36 -40 70 -27 237 18 237 10 0 13 -6 9 -17z m568 -80 c4 -52 2 -80 -5
-87 -8 -8 -13 -7 -16 1 -4 10 -10 9 -26 -2 -28 -19 -33 -19 -57 5 -16 16 -20
33 -20 86 0 48 3 65 13 62 6 -3 13 -24 15 -49 4 -71 11 -89 32 -89 29 0 40 30
33 93 -5 47 -3 57 9 57 12 0 17 -18 22 -77z m526 67 c0 -14 -12 -17 -89 -25
-50 -5 -62 -3 -59 7 7 20 148 37 148 18z m-1638 -134 c8 -108 11 -116 43 -116
32 0 33 -16 0 -22 -48 -10 -63 13 -71 112 -6 79 -9 90 -25 90 -27 0 -24 18 4
23 39 7 42 2 49 -87z m411 -25 c6 -102 -4 -133 -48 -141 -17 -3 -38 -4 -47 -2
-30 7 -20 22 15 22 38 0 57 15 57 44 0 16 -3 17 -12 8 -20 -20 -65 -14 -82 10
-20 29 -20 97 -1 126 13 17 25 21 64 21 l48 -2 6 -86z m3162 39 c22 -49 24
-111 6 -167 -17 -51 -37 -59 -24 -10 13 54 8 149 -10 185 -14 25 -15 32 -4 32
8 0 22 -18 32 -40z m-3351 8 c9 -12 16 -41 16 -63 0 -58 -22 -85 -70 -85 -49
0 -70 27 -70 87 0 54 26 83 74 83 25 0 39 -7 50 -22z m-767 -35 c-3 -27 -9
-74 -13 -105 l-6 -58 32 0 c21 0 30 -4 28 -12 -3 -8 -21 -13 -44 -13 l-39 0 0
45 c0 25 4 71 8 103 7 56 7 57 -18 57 -26 0 -34 15 -12 23 6 3 25 6 41 6 28 1
29 1 23 -46z m3957 22 c9 -14 13 -25 8 -25 -5 0 -19 11 -32 25 -18 19 -20 25
-8 25 9 0 23 -11 32 -25z m-135 -82 c1 -43 -9 -69 -20 -51 -11 16 -12 112 -2
122 10 9 21 -27 22 -71z m-3601 51 c15 -11 22 -25 22 -50 0 -31 -3 -34 -29
-34 -16 0 -43 -3 -60 -6 -25 -5 -31 -11 -29 -28 2 -17 10 -21 38 -20 19 0 43
4 53 8 13 6 16 5 11 -8 -3 -9 -23 -21 -45 -27 -32 -10 -42 -9 -64 5 -50 33
-25 141 39 166 30 13 39 12 64 -6z m-354 -66 c11 -32 1 -86 -22 -116 -23 -30
-83 -40 -105 -17 -22 21 -22 77 -1 121 27 57 109 65 128 12z m3616 22 c0 -16
7 -20 30 -20 35 0 41 -17 8 -22 -21 -3 -23 -9 -23 -58 0 -51 2 -55 24 -55 14
0 26 -6 29 -13 3 -10 -6 -12 -34 -10 l-39 3 -9 63 c-8 50 -13 62 -28 62 -10 0
-18 5 -18 10 0 6 9 10 20 10 15 0 20 7 20 25 0 14 5 25 10 25 6 0 10 -9 10
-20z m-3810 -26 c0 -9 -10 -11 -33 -7 -23 3 -37 0 -46 -11 -15 -18 -7 -36 17
-36 24 0 62 -28 62 -46 0 -8 -11 -26 -25 -39 -19 -19 -35 -25 -70 -25 -33 0
-45 4 -42 13 2 6 19 12 39 12 41 0 75 22 58 39 -5 5 -25 15 -42 20 -59 19 -43
88 22 98 35 5 60 -2 60 -18z m-201 -12 c20 -16 21 -23 15 -85 -4 -44 -12 -71
-21 -74 -21 -8 -21 -4 -12 62 6 48 5 63 -7 75 -14 13 -18 12 -40 -13 -14 -17
-24 -41 -24 -60 0 -48 -11 -77 -27 -77 -12 0 -14 9 -9 48 17 121 17 124 35
119 10 -2 26 2 36 9 24 18 28 18 54 -4z m901 -31 c0 -23 -5 -30 -25 -33 -14
-3 -25 -1 -25 6 0 6 -3 21 -6 33 -5 17 -1 22 18 25 32 6 38 1 38 -31z m3014
33 c26 -10 19 -32 -8 -27 -37 7 -60 -35 -53 -92 5 -34 3 -45 -7 -45 -9 0 -16
21 -20 70 -8 75 -4 92 19 84 7 -3 22 -1 32 5 22 13 18 12 37 5z m-4094 -33
c15 -30 12 -89 -7 -122 -30 -50 -109 -59 -127 -14 -17 46 5 123 41 144 31 18
81 13 93 -8z m3930 -10 c14 -27 13 -104 -2 -124 -22 -28 -63 -32 -87 -8 -27
27 -29 105 -4 133 22 25 79 24 93 -1z m-4110 -7 c0 -12 -7 -14 -28 -9 -44 9
-82 -26 -82 -75 0 -49 19 -66 60 -52 24 9 30 8 30 -3 0 -33 -77 -39 -111 -9
-17 15 -20 27 -16 62 7 63 47 102 104 102 33 0 43 -4 43 -16z m3934 3 c26 -19
37 -84 21 -124 -13 -32 -26 -38 -68 -33 -15 1 -18 -4 -15 -31 2 -18 -2 -34 -9
-36 -13 -5 -27 115 -21 181 2 33 7 40 25 41 13 1 26 5 30 8 9 10 17 9 37 -6z
m786 -42 c0 -8 -9 -15 -20 -15 -11 0 -20 7 -20 15 0 8 9 15 20 15 11 0 20 -7
20 -15z m-1410 -40 c0 -9 -9 -15 -22 -15 -42 0 -51 -14 -49 -79 1 -48 -2 -61
-14 -61 -11 0 -15 11 -15 38 -1 20 -3 53 -6 73 -3 24 -1 40 7 45 7 4 15 2 17
-4 2 -8 8 -7 19 3 19 20 63 20 63 0z m-182 -33 c6 -9 12 -26 12 -38 0 -20 -6
-23 -47 -26 -39 -2 -48 -6 -48 -22 0 -30 29 -43 65 -29 24 9 30 9 30 -2 0 -7
-16 -19 -36 -25 -32 -11 -39 -10 -63 7 -50 38 -35 146 21 155 30 5 50 -1 66
-20z m-548 2 c0 -17 -22 -14 -28 4 -2 7 3 12 12 12 9 0 16 -7 16 -16z m361 -5
c11 -5 24 -22 30 -36 12 -31 -1 -43 -46 -43 -39 0 -59 -14 -52 -34 9 -24 36
-31 68 -19 24 9 29 9 29 -3 0 -14 -38 -34 -66 -34 -28 0 -64 47 -64 84 0 50 9
66 44 82 38 16 33 16 57 3z m-4687 -12 c23 -17 27 -47 9 -75 -13 -22 -13 -25
6 -39 26 -18 28 -73 4 -96 -20 -17 -73 -28 -102 -20 -20 5 -41 42 -41 73 0 10
9 25 20 33 l20 14 -20 18 c-27 24 -26 70 2 89 27 19 78 21 102 3z m4521 -11
c27 -19 36 -156 11 -156 -13 0 -16 11 -16 54 0 63 -7 86 -25 86 -32 0 -43 -28
-38 -90 5 -49 3 -60 -9 -60 -12 0 -16 18 -21 77 -3 43 -4 79 -3 81 2 1 16 5
32 8 16 3 31 7 33 10 7 7 16 5 36 -10z m-183 -83 c3 -60 5 -68 23 -69 36 -2
39 -4 30 -13 -15 -14 -125 -24 -125 -12 0 6 12 14 26 17 17 4 23 11 20 21 -3
8 -6 32 -6 54 0 32 -3 39 -20 39 -11 0 -20 7 -20 15 0 10 11 15 35 15 l34 0 3
-67z m-139 -57 c2 -86 0 -99 -17 -112 -26 -19 -86 -19 -86 0 0 9 7 12 19 9 26
-7 61 14 61 36 0 17 -3 18 -31 8 -28 -11 -33 -10 -55 16 -28 33 -31 75 -8 118
13 26 20 30 49 28 19 -2 37 0 41 4 17 17 26 -16 27 -107z m-178 61 c2 -7 6
-40 9 -74 4 -49 3 -63 -8 -63 -13 0 -26 48 -26 101 0 30 -25 45 -46 28 -9 -8
-14 -33 -14 -75 0 -50 -3 -64 -15 -64 -11 0 -15 12 -15 49 0 27 -3 63 -6 81
-6 27 -4 31 12 29 10 -1 30 3 44 8 27 11 58 1 65 -20z m-574 -44 c2 -105 9
-127 42 -131 34 -4 31 -26 -4 -30 -47 -6 -60 16 -66 111 -6 83 -7 87 -29 87
-23 0 -31 10 -17 23 3 4 21 7 40 7 l33 0 1 -67z m392 35 c9 -7 19 -25 22 -40
7 -26 5 -27 -49 -33 -31 -4 -58 -11 -61 -15 -2 -3 3 -17 12 -29 15 -23 33 -24
76 -6 12 5 17 3 17 -8 0 -18 -21 -27 -65 -27 -48 0 -79 41 -72 95 9 63 74 97
120 63z m-1814 -138 c2 -59 3 -63 16 -46 18 23 20 14 4 -13 -9 -13 -9 -55 -2
-157 6 -76 9 -140 8 -141 0 -2 -12 -4 -25 -5 l-25 -3 -11 155 c-7 85 -15 190
-19 232 -6 74 -6 77 17 80 29 4 36 -15 37 -102z m1043 88 c2 -16 10 -22 28
-23 33 0 38 -19 5 -23 -22 -3 -25 -8 -25 -47 0 -61 8 -75 41 -75 16 0 29 -4
29 -10 0 -5 -20 -10 -44 -10 -51 0 -56 8 -56 81 0 46 -2 49 -25 49 -30 0 -33
20 -5 27 13 3 20 14 20 29 0 31 27 32 32 2z m-218 -4 c3 -9 6 -24 6 -35 0 -16
4 -17 26 -8 32 12 61 4 68 -19 2 -9 8 -45 11 -78 5 -50 4 -62 -9 -67 -12 -5
-16 6 -21 51 -9 75 -14 92 -28 92 -33 -1 -42 -20 -42 -86 0 -93 -21 -98 -29
-7 -4 37 -9 92 -12 121 -4 41 -2 52 9 52 8 0 18 -7 21 -16z m-351 -38 c9 -13
17 -45 19 -70 2 -26 8 -46 14 -46 15 0 24 -59 13 -88 -17 -46 -130 -66 -146
-26 -3 8 -9 11 -14 8 -5 -3 -6 2 -3 10 3 9 3 24 -2 34 -11 27 -16 80 -6 63 6
-7 18 -11 28 -7 14 4 19 16 20 45 0 23 8 46 18 57 10 10 16 27 13 40 -3 19 -1
22 13 14 9 -5 24 -20 33 -34z m828 9 c4 -16 7 -54 8 -83 1 -76 -22 -64 -29 14
-9 108 -43 113 -38 6 4 -88 -15 -97 -24 -13 -12 113 -46 103 -35 -10 4 -44 2
-59 -8 -59 -14 0 -25 52 -25 122 0 52 3 54 100 53 42 0 45 -2 51 -30z m-1711
-39 c0 -19 -4 -38 -10 -41 -6 -4 -10 10 -10 34 0 23 5 41 10 41 6 0 10 -15 10
-34z m572 -5 c9 -11 17 -32 17 -48 0 -38 5 -61 16 -70 4 -4 5 -2 0 6 -6 10 -4
12 4 7 7 -4 11 -15 9 -24 -1 -10 1 -23 6 -30 20 -33 -46 -102 -99 -102 -27 0
-65 23 -65 40 0 10 -7 34 -15 53 -8 20 -15 44 -15 54 1 17 1 17 11 1 5 -10 16
-18 24 -18 14 0 31 37 22 47 -8 7 14 63 24 63 5 0 9 14 9 30 0 26 3 29 18 21
9 -5 25 -19 34 -30z m179 -24 c-10 -9 -11 -8 -5 6 3 10 9 15 12 12 3 -3 0 -11
-7 -18z m-746 -83 c-6 -64 -15 -68 -15 -6 0 29 4 52 10 52 6 0 8 -20 5 -46z
m12 -124 c-2 -22 -7 -43 -11 -47 -8 -8 -8 50 0 71 11 28 15 17 11 -24z m-1597
-30 c24 -13 40 -62 40 -127 0 -47 -4 -59 -29 -84 -33 -33 -94 -41 -105 -14 -4
11 2 15 27 15 41 0 64 17 72 52 l7 27 -32 -15 c-83 -42 -150 79 -76 138 23 20
68 23 96 8z m6982 -230 c29 -24 39 -42 49 -86 7 -31 19 -63 27 -71 8 -8 11
-18 6 -22 -10 -10 -236 -42 -243 -36 -2 3 1 16 7 30 7 14 12 36 12 48 0 45 22
100 53 133 18 18 37 34 42 34 6 0 27 -14 47 -30z m-585 -50 c44 -26 63 -58 69
-116 11 -96 -63 -184 -153 -184 -62 0 -101 23 -124 73 -23 51 -24 86 -4 135
41 96 137 138 212 92z m-5264 -90 c24 -47 28 -64 24 -111 -5 -62 -30 -119 -52
-119 -12 0 -11 7 2 46 20 59 13 151 -16 200 -25 43 -26 46 -3 42 9 -2 30 -28
45 -58z m-209 18 c9 -12 16 -35 16 -49 0 -42 10 -59 35 -59 35 0 39 -17 8 -32
-24 -11 -28 -20 -31 -63 -3 -54 -20 -75 -59 -75 -31 0 -29 18 3 30 23 9 25 14
20 45 -4 20 -2 44 5 56 7 15 8 24 1 28 -6 4 -15 29 -19 56 -8 43 -12 50 -31
49 -23 -1 -30 21 -9 29 26 11 47 6 61 -15z m4875 -106 c15 -12 15 -14 -1 -23
-12 -7 -15 -18 -10 -51 3 -24 12 -48 20 -54 13 -9 12 -12 -3 -18 -29 -11 -45
12 -45 65 0 27 -4 49 -10 49 -5 0 -10 7 -10 15 0 8 4 15 9 15 5 0 12 10 16 23
5 16 8 18 12 7 3 -8 13 -21 22 -28z m-221 6 c-6 -18 -28 -21 -28 -4 0 9 7 16
16 16 9 0 14 -5 12 -12z m1402 -7 c0 -15 -28 -33 -46 -29 -27 5 -28 26 -2 31
40 8 48 7 48 -2z m-1268 -28 c23 -21 24 -89 1 -115 -9 -10 -29 -18 -45 -18
-24 0 -28 -4 -28 -30 0 -20 -5 -30 -15 -30 -12 0 -15 16 -17 80 -1 44 -2 88
-2 98 -1 11 7 17 22 18 12 1 25 4 29 8 11 11 36 6 55 -11z m-5670 -11 c-1 -8
2 -11 8 -7 15 9 30 -40 30 -101 0 -67 -10 -87 -50 -104 -25 -10 -34 -10 -55 4
-34 22 -45 54 -45 127 0 74 22 102 78 97 24 -2 36 -8 34 -16z m5250 1 c10 -9
18 -20 18 -25 0 -13 -22 -9 -42 9 -15 13 -23 14 -43 5 -28 -13 -34 -47 -9 -56
9 -3 29 -6 44 -6 55 0 73 -73 27 -105 -40 -28 -117 -11 -117 26 0 12 27 12 35
-1 11 -18 64 -11 74 9 13 23 0 36 -49 46 -47 10 -60 22 -60 56 0 51 81 80 122
42z m220 -31 c-16 -16 -18 -29 -14 -71 4 -42 2 -51 -12 -51 -13 0 -16 12 -16
76 0 60 3 75 13 71 8 -3 20 -1 28 4 22 13 23 -7 1 -29z m68 -37 c0 -79 -13
-100 -24 -37 -11 67 -7 112 9 112 12 0 15 -15 15 -75z m-5755 -40 l7 -105 29
0 c46 0 34 -17 -17 -24 -64 -8 -84 -8 -84 3 0 5 10 11 23 13 12 2 21 8 21 13
-1 6 -5 45 -9 88 -5 62 -9 77 -21 73 -8 -3 -21 -9 -30 -13 -12 -4 -15 -2 -12
8 4 12 63 49 79 49 4 0 10 -47 14 -105z m5609 79 c9 -8 16 -20 16 -25 0 -12
-27 -12 -35 1 -12 19 -45 10 -55 -15 -20 -53 27 -100 60 -60 16 19 30 19 30 1
0 -18 -38 -46 -62 -46 -57 0 -80 101 -32 139 32 25 57 27 78 5z m-702 -114 c3
-41 1 -85 -3 -98 -16 -42 -89 -52 -103 -15 -9 23 8 37 24 18 7 -8 18 -15 26
-15 23 0 32 33 27 102 -3 37 -3 75 1 84 12 32 24 0 28 -76z m398 70 c15 -15
20 -33 20 -74 l0 -54 -46 -7 c-49 -7 -74 5 -74 35 0 22 20 39 56 49 15 4 29
12 32 19 6 20 -27 26 -47 8 -10 -9 -23 -16 -30 -16 -19 0 6 40 32 50 32 13 35
12 57 -10z m-131 -67 c-25 -91 -26 -93 -41 -93 -16 0 -71 131 -59 143 11 11
26 -10 41 -56 11 -34 30 -43 30 -14 0 31 22 87 35 87 11 0 10 -13 -6 -67z
m-139 27 c15 -15 20 -33 20 -74 l0 -54 -46 -7 c-49 -7 -74 5 -74 35 0 22 20
39 57 49 30 8 38 34 12 39 -9 2 -24 -4 -32 -13 -17 -17 -37 -20 -37 -6 0 13
50 51 66 51 8 0 23 -9 34 -20z m-612 -28 c2 -6 -13 -14 -35 -17 -61 -10 -65
-13 -61 -42 3 -27 5 -28 52 -25 37 3 47 1 44 -10 -3 -7 -13 -14 -24 -16 -63
-9 -64 -10 -64 -57 0 -31 -4 -45 -14 -45 -10 0 -15 26 -20 101 -4 56 -5 103
-3 106 6 6 99 21 111 19 6 -1 11 -7 14 -14z m-243 -113 l7 -91 49 7 c39 6 49
4 49 -8 0 -10 -17 -16 -61 -21 -34 -4 -62 -6 -64 -4 -2 2 -6 49 -10 106 -6 88
-5 102 8 102 12 0 16 -19 22 -91z m-457 15 c23 -16 31 -67 11 -79 -6 -5 -3
-13 10 -22 41 -28 15 -94 -44 -109 -65 -16 -114 33 -83 84 14 23 14 28 1 48
-19 29 -9 60 25 79 35 19 53 18 80 -1z m-268 -39 c0 -10 -16 -16 -50 -21 -50
-7 -51 -7 -47 -38 3 -30 5 -31 50 -28 38 3 47 0 47 -12 0 -10 -9 -16 -22 -16
-57 0 -68 -10 -68 -56 0 -31 -4 -44 -14 -44 -16 0 -24 46 -22 145 l1 70 40 6
c70 11 85 10 85 -6z m-154 -16 c8 -14 -14 -29 -44 -29 -22 0 -22 -1 -16 -95 6
-83 5 -95 -9 -95 -12 0 -17 18 -23 90 l-7 90 -33 0 c-22 0 -34 5 -34 14 0 9
23 16 73 23 39 6 75 11 79 12 4 0 10 -4 14 -10z m-186 -58 c0 -21 3 -58 6 -83
6 -40 3 -49 -22 -77 -30 -33 -65 -42 -112 -27 -31 10 -39 30 -47 124 -7 78 -6
84 11 80 16 -3 20 -15 24 -78 3 -41 9 -81 13 -87 10 -16 69 -17 85 -1 8 8 12
45 12 100 0 72 3 88 15 88 11 0 15 -11 15 -39z m470 -26 c0 -10 -10 -15 -27
-15 -16 0 -38 -3 -50 -6 -17 -5 -23 -2 -23 9 0 19 15 25 63 26 27 1 37 -3 37
-14z m-1078 -42 c29 -26 22 -66 -22 -122 -22 -28 -40 -52 -40 -54 0 -3 19 -1
43 4 38 7 69 -2 56 -16 -7 -6 -105 -25 -130 -25 -30 0 -22 20 31 89 53 67 57
80 38 99 -19 19 -46 14 -64 -13 -14 -22 -44 -35 -44 -20 0 14 31 64 42 68 27
11 72 6 90 -10z m-307 -103 c22 -25 12 -39 -16 -22 -23 15 -62 6 -56 -11 2 -7
19 -14 38 -18 46 -7 59 -16 59 -41 0 -34 -29 -58 -70 -58 -43 0 -71 23 -52 42
9 9 15 9 24 0 15 -15 55 -16 64 -1 9 15 -14 29 -46 29 -51 0 -69 56 -28 84 31
22 61 20 83 -4z m83 -3 c2 -12 -3 -17 -17 -17 -12 0 -21 6 -21 13 0 31 32 34
38 4z m-234 -18 c37 -29 35 -65 -5 -73 -17 -3 -43 -6 -56 -6 -18 0 -24 -5 -21
-17 4 -24 66 -31 74 -9 7 19 34 22 34 4 0 -25 -34 -48 -69 -48 -42 0 -54 7
-70 37 -25 48 3 117 52 126 12 2 25 5 28 6 4 0 18 -8 33 -20z m-150 -25 c22
-21 20 -34 -4 -34 -11 0 -20 5 -20 10 0 14 -43 13 -58 -2 -17 -17 -15 -64 4
-82 20 -21 30 -20 54 4 23 23 40 26 40 6 0 -19 -48 -56 -72 -56 -33 0 -67 30
-74 65 -6 34 15 89 38 98 27 11 77 6 92 -9z m-510 -10 c9 -8 16 -22 16 -30 0
-18 -24 -18 -40 1 -16 19 -54 19 -74 0 -23 -24 -9 -43 37 -50 67 -10 78 -15
88 -41 12 -32 -11 -79 -43 -88 -63 -17 -128 4 -128 41 0 18 36 17 44 -2 7 -19
56 -19 82 -1 30 23 7 50 -48 56 -25 3 -53 12 -62 19 -16 14 -21 58 -8 77 23
34 109 46 136 18z m345 -7 c6 -7 13 -43 17 -80 6 -66 6 -67 -17 -67 -13 0 -39
-2 -57 -6 -38 -7 -62 8 -62 41 0 28 20 46 63 54 18 4 32 13 32 21 0 21 -39 24
-55 5 -14 -17 -40 -20 -40 -5 0 39 93 68 119 37z m-176 -18 c31 -17 37 -28 37
-75 0 -53 -28 -84 -75 -84 -32 0 -35 -2 -35 -30 0 -20 -5 -30 -15 -30 -19 0
-24 25 -27 130 l-3 85 27 0 c15 1 30 4 34 8 11 10 32 9 57 -4z m732 -30 c0 -7
-8 -15 -17 -17 -18 -3 -25 18 -11 32 10 10 28 1 28 -15z m-1485 -21 c0 -25
-85 -220 -98 -225 -25 -10 -23 6 13 93 21 49 40 95 42 102 3 7 0 10 -8 8 -8
-2 -36 -7 -62 -10 -42 -5 -48 -4 -45 12 2 11 16 19 43 23 72 11 115 10 115 -3z
m-256 -35 c2 -10 7 -62 11 -115 6 -84 5 -98 -8 -98 -20 0 -24 16 -33 133 -5
84 -4 97 9 97 9 0 18 -8 21 -17z m-273 -40 c33 -20 45 -43 27 -54 -8 -5 -21 0
-33 11 -54 51 -132 3 -122 -75 10 -75 77 -99 127 -45 15 17 33 30 39 30 21 0
11 -31 -18 -61 -25 -24 -38 -29 -79 -29 -40 0 -54 5 -75 26 -96 96 19 265 134
197z m202 -40 c24 -27 31 -70 17 -104 -15 -36 -37 -49 -84 -49 -78 0 -103 107
-37 157 24 19 85 16 104 -4z m-569 -36 c28 -38 29 -125 0 -164 -28 -38 -84
-52 -118 -29 -14 9 -26 23 -26 31 0 17 26 20 35 5 12 -19 63 -11 79 12 27 38
21 51 -15 33 -56 -29 -119 4 -119 63 0 82 113 116 164 49z m-549 -104 c12
-130 9 -125 72 -121 36 2 57 -1 60 -8 4 -13 -18 -20 -98 -29 l-56 -7 -7 74
c-4 40 -9 92 -12 116 -6 37 -4 42 14 42 18 0 21 -8 27 -67z m269 34 c18 -13
35 -75 36 -129 0 -21 -5 -28 -20 -28 -17 0 -20 7 -20 48 0 58 -17 85 -51 80
-23 -3 -24 -7 -24 -68 0 -59 -7 -79 -27 -80 -4 0 -9 26 -13 58 -12 107 -12
107 10 107 11 1 29 6 40 13 26 15 47 15 69 -1z m380 -104 c-8 -44 -12 -53 -25
-53 -5 0 -9 20 -9 45 0 39 3 45 20 45 19 0 20 -4 14 -37z m5904 -418 c-3 -3
-9 2 -12 12 -6 14 -5 15 5 6 7 -7 10 -15 7 -18z"/>
<path d="M6928 7283 l-47 -4 5 -87 c3 -48 7 -93 10 -99 4 -14 100 -19 107 -5
9 14 -8 195 -18 197 -5 1 -31 0 -57 -2z"/>
<path d="M7040 7238 c0 -29 3 -75 6 -103 l6 -50 54 3 c62 4 60 0 47 135 l-6
67 -53 0 -54 0 0 -52z"/>
<path d="M6240 7221 c-14 -27 -13 -64 3 -85 16 -21 60 -24 82 -6 21 17 19 73
-3 93 -25 23 -69 22 -82 -2z"/>
<path d="M1152 7068 c-30 -30 -1 -118 38 -118 29 0 53 43 45 80 -10 43 -56 65
-83 38z"/>
<path d="M852 7058 c-7 -7 -12 -29 -12 -50 0 -71 80 -89 93 -21 11 59 -45 107
-81 71z"/>
<path d="M440 6965 c-15 -19 -5 -35 24 -35 25 0 46 17 46 37 0 18 -55 17 -70
-2z"/>
<path d="M652 7054 c-44 -30 -23 -114 29 -114 55 0 65 82 14 116 -18 12 -24
11 -43 -2z"/>
<path d="M6784 6573 c-17 -17 -16 -18 20 -21 45 -4 54 2 36 23 -16 20 -35 19
-56 -2z"/>
<path d="M6466 6564 c-22 -21 -20 -67 3 -95 16 -20 21 -21 35 -10 21 17 21 84
0 105 -8 9 -17 16 -19 16 -2 0 -11 -7 -19 -16z"/>
<path d="M6122 6548 c-21 -21 -13 -28 28 -28 22 0 40 4 40 8 0 14 -23 32 -40
32 -9 0 -21 -5 -28 -12z"/>
<path d="M5612 6528 c-21 -21 -14 -28 29 -28 33 0 40 3 37 18 -4 21 -48 28
-66 10z"/>
<path d="M4742 6498 c-21 -21 -13 -28 28 -28 22 0 40 4 40 8 0 14 -23 32 -40
32 -9 0 -21 -5 -28 -12z"/>
<path d="M4917 6503 c-13 -12 -7 -90 8 -103 25 -21 50 -8 53 29 5 54 -5 81
-32 81 -12 0 -26 -3 -29 -7z"/>
<path d="M3468 6449 c-29 -16 -21 -29 17 -29 37 0 49 22 19 34 -19 7 -15 8
-36 -5z"/>
<path d="M3079 6414 c-15 -40 6 -94 36 -94 25 0 35 17 35 56 0 61 -51 88 -71
38z"/>
<path d="M2690 6406 c-11 -14 -7 -16 30 -16 29 0 40 4 38 13 -7 18 -53 20 -68
3z"/>
<path d="M1717 6378 c-40 -31 -41 -120 -1 -126 44 -6 82 89 49 121 -20 20 -26
21 -48 5z"/>
<path d="M4590 6010 c-10 -18 -8 -20 30 -20 41 0 49 7 28 28 -18 18 -46 14
-58 -8z"/>
<path d="M4237 6003 c-4 -3 -7 -25 -7 -48 0 -46 17 -69 47 -63 22 4 31 81 12
104 -12 15 -41 19 -52 7z"/>
<path d="M3882 5993 c-7 -3 -17 -14 -23 -24 -9 -18 -7 -19 18 -15 15 2 36 5
46 5 10 1 15 5 12 11 -9 15 -39 28 -53 23z"/>
<path d="M3114 5925 c-17 -68 43 -131 66 -70 16 42 -1 89 -33 93 -21 3 -28 -2
-33 -23z"/>
<path d="M2927 5933 c-11 -10 -8 -72 3 -94 15 -26 49 -24 59 4 5 12 7 27 6 32
-2 6 -6 22 -9 38 -5 20 -12 27 -30 27 -12 0 -26 -3 -29 -7z"/>
<path d="M2730 5855 c-16 -19 -6 -45 18 -45 23 0 42 19 42 42 0 22 -42 25 -60
3z"/>
<path d="M1750 5870 c-25 -25 -28 -105 -4 -114 38 -15 81 43 69 94 -11 43 -35
50 -65 20z"/>
<path d="M4614 5597 c-3 -13 -4 -41 -2 -63 l3 -39 28 52 c33 64 34 73 2 73
-17 0 -26 -7 -31 -23z"/>
<path d="M4658 5526 c-32 -56 -35 -74 -12 -83 29 -11 45 20 42 78 l-3 54 -27
-49z"/>
<path d="M4446 5601 c-16 -18 -23 -111 -8 -111 8 0 52 90 52 107 0 19 -28 22
-44 4z"/>
<path d="M4477 5511 c-29 -53 -30 -81 -4 -81 27 0 38 27 35 82 l-3 53 -28 -54z"/>
<path d="M4261 5586 c-7 -8 -11 -36 -9 -63 l3 -48 22 38 c13 21 26 49 29 62 5
20 2 25 -14 25 -11 0 -25 -6 -31 -14z"/>
<path d="M4294 5498 c-22 -40 -28 -60 -21 -67 32 -32 59 2 55 71 l-3 53 -31
-57z"/>
<path d="M2967 5459 c-21 -12 -23 -77 -4 -103 17 -23 53 -14 62 15 17 51 -21
108 -58 88z"/>
<path d="M2764 5425 c-17 -68 41 -129 67 -71 19 40 0 90 -33 94 -22 3 -29 -2
-34 -23z"/>
<path d="M1790 5380 c-29 -29 -28 -106 1 -115 32 -11 61 24 63 74 0 27 -5 45
-14 51 -21 14 -28 12 -50 -10z"/>
<path d="M677 4805 c-15 -31 -27 -58 -27 -61 0 -3 15 -4 33 -2 32 3 32 4 35
61 2 31 -1 57 -5 57 -5 0 -21 -25 -36 -55z"/>
<path d="M7368 4849 c-29 -16 -22 -39 11 -39 33 0 44 11 35 34 -7 18 -21 20
-46 5z"/>
<path d="M6720 4785 c-17 -20 -12 -24 28 -18 18 3 31 10 29 17 -6 18 -42 19
-57 1z"/>
<path d="M5385 4678 c-15 -23 -15 -23 21 -26 44 -4 63 10 44 33 -18 22 -46 19
-65 -7z"/>
<path d="M4515 4632 c3 -3 -2 -14 -12 -24 -9 -10 -13 -21 -9 -25 9 -10 78 -4
90 7 14 14 -11 37 -44 42 -17 3 -28 2 -25 0z"/>
<path d="M2645 4460 c-18 -20 -17 -20 28 -20 48 0 56 7 35 28 -18 18 -43 15
-63 -8z"/>
<path d="M2447 4454 c-12 -12 -8 -89 5 -102 36 -36 78 12 62 70 -7 25 -16 34
-35 36 -13 2 -28 0 -32 -4z"/>
<path d="M2060 4404 c-21 -54 19 -123 54 -95 18 15 21 73 6 102 -15 28 -49 24
-60 -7z"/>
<path d="M1867 4403 c-10 -9 -8 -85 2 -101 4 -8 19 -12 32 -10 20 3 24 9 27
46 2 24 -2 50 -9 58 -12 15 -41 19 -52 7z"/>
<path d="M1660 4315 c-18 -21 -5 -45 24 -45 24 0 46 24 46 49 0 16 -56 13 -70
-4z"/>
<path d="M772 3794 c-40 -28 -21 -104 27 -104 9 0 22 5 29 12 18 18 14 73 -6
91 -23 21 -22 21 -50 1z"/>
<path d="M4026 3635 c-11 -30 -6 -73 10 -89 21 -22 31 -20 50 9 24 37 8 89
-28 93 -16 2 -28 -3 -32 -13z"/>
<path d="M3855 3616 c-28 -42 0 -115 38 -100 23 8 31 58 15 90 -18 37 -34 40
-53 10z"/>
<path d="M3292 3568 c-21 -21 -13 -29 26 -26 25 2 37 8 37 18 0 19 -46 25 -63
8z"/>
<path d="M2142 3448 c-25 -25 -6 -108 26 -108 26 0 42 20 42 53 0 56 -37 86
-68 55z"/>
<path d="M1944 3426 c-19 -50 -3 -106 31 -106 25 0 35 17 35 60 0 16 -3 35 -6
44 -8 20 -53 21 -60 2z"/>
<path d="M1748 3349 c-24 -13 -23 -36 2 -49 15 -8 24 -6 40 10 11 11 20 27 20
35 0 17 -36 20 -62 4z"/>
<path d="M6160 3361 c-29 -8 -36 -54 -9 -59 21 -4 49 24 49 49 0 20 -2 21 -40
10z"/>
<path d="M4422 3228 c-17 -17 -15 -84 4 -102 12 -12 20 -13 35 -6 35 19 22
120 -16 120 -6 0 -16 -5 -23 -12z"/>
<path d="M4240 3201 c-14 -28 -13 -74 4 -96 12 -17 18 -18 40 -7 21 9 26 18
26 47 0 46 -15 75 -40 75 -11 0 -24 -9 -30 -19z"/>
<path d="M3707 3142 c-25 -28 -21 -34 21 -30 29 2 37 7 37 23 0 27 -36 31 -58
7z"/>
<path d="M3331 3094 c-15 -20 -21 -39 -19 -63 3 -31 7 -36 31 -39 24 -3 30 2
43 35 30 70 -12 121 -55 67z"/>
<path d="M2765 3036 c-36 -36 -29 -116 10 -116 23 0 55 50 55 86 0 49 -32 63
-65 30z"/>
<path d="M6711 3036 c-15 -18 -17 -42 -7 -79 5 -22 12 -28 28 -25 30 4 43 49
26 84 -16 33 -31 40 -47 20z"/>
<path d="M6552 3018 c-17 -17 -15 -83 3 -98 34 -29 66 29 46 83 -11 29 -30 34
-49 15z"/>
<path d="M5722 2918 c-20 -20 -14 -28 24 -28 28 0 35 3 32 18 -4 21 -39 27
-56 10z"/>
<path d="M5552 2898 c-20 -20 -14 -28 21 -28 40 0 51 8 36 27 -14 16 -41 17
-57 1z"/>
<path d="M846 2897 c-11 -8 -17 -22 -14 -38 2 -20 8 -24 38 -24 32 0 35 3 38
33 2 17 -1 32 -7 32 -5 0 -15 2 -23 5 -7 3 -22 -1 -32 -8z"/>
<path d="M846 2784 c-19 -18 -19 -16 -6 -48 17 -46 90 -30 90 19 0 43 -53 61
-84 29z"/>
<path d="M5030 2831 c-22 -42 -4 -101 31 -101 35 0 46 70 16 108 -14 18 -35
15 -47 -7z"/>
<path d="M4692 2794 c-30 -21 -19 -35 21 -27 41 8 42 9 27 28 -16 19 -20 19
-48 -1z"/>
<path d="M882 2398 c-25 -25 -5 -98 26 -98 19 0 52 33 52 51 0 50 -47 78 -78
47z"/>
<path d="M7314 2096 c-9 -22 2 -46 21 -46 12 0 15 8 13 27 -3 30 -25 42 -34
19z"/>
<path d="M7211 2086 c-14 -17 -5 -59 12 -53 23 7 32 36 16 52 -14 14 -17 14
-28 1z"/>
<path d="M7351 1978 c-11 -29 -52 -58 -81 -58 -12 0 -31 11 -44 25 -26 28 -36
31 -36 11 0 -23 50 -56 85 -56 52 0 122 67 96 93 -7 7 -13 3 -20 -15z"/>
<path d="M6598 1905 c-15 -33 3 -75 32 -75 29 0 47 42 32 75 -7 15 -20 25 -32
25 -12 0 -25 -10 -32 -25z"/>
<path d="M931 1916 c-12 -14 -18 -112 -8 -122 8 -9 69 115 62 126 -9 15 -41
12 -54 -4z"/>
<path d="M994 1869 c-17 -20 -45 -79 -54 -109 -7 -24 -6 -26 21 -22 41 6 50
23 47 88 -2 44 -6 54 -14 43z"/>
<path d="M6034 1776 c-14 -11 -16 -18 -8 -26 15 -15 54 4 54 25 0 19 -21 19
-46 1z"/>
<path d="M5763 1743 c-18 -7 -16 -32 2 -39 18 -7 45 12 45 32 0 14 -23 17 -47
7z"/>
<path d="M4442 1668 c-30 -30 0 -68 39 -48 23 13 25 46 3 54 -22 8 -28 8 -42
-6z"/>
<path d="M4436 1565 c-20 -20 -10 -44 22 -52 32 -8 70 31 51 53 -15 19 -54 18
-73 -1z"/>
<path d="M2757 1363 c-18 -17 -5 -29 28 -25 43 5 49 32 7 32 -16 0 -32 -3 -35
-7z"/>
<path d="M2463 1263 c-12 -2 -24 -11 -27 -19 -7 -19 22 -30 43 -17 17 11 28
44 14 42 -4 -1 -18 -4 -30 -6z"/>
<path d="M2272 1288 c-7 -7 -12 -24 -12 -38 0 -52 61 -71 82 -25 23 51 -32
101 -70 63z"/>
<path d="M1176 1134 c-19 -18 -21 -65 -4 -82 7 -7 21 -12 33 -12 30 0 45 19
45 55 0 51 -41 73 -74 39z"/>
<path d="M588 1119 c-21 -12 -24 -49 -6 -67 22 -22 67 -14 80 14 21 46 -28 81
-74 53z"/>
<path d="M0 7015 c0 -28 31 -49 60 -40 31 10 23 33 -16 50 -46 19 -44 19 -44
-10z"/>
</g>
</svg>
